<svg width="240" height="213" viewBox="0 0 240 213" fill="none" xmlns="http://www.w3.org/2000/svg">
<g id="Spotify-Icon-Logo.wine 1" opacity="0.59">
<path id="Vector" d="M140.684 89.1378C124.033 88.5104 102.902 99.1161 92.8718 109.298C91.2605 110.933 88.6284 110.954 86.9945 109.343C85.3597 107.73 85.3383 105.1 86.9497 103.463C98.4636 91.7743 121.828 80.1111 140.994 80.8293C143.291 80.9155 145.078 82.8471 144.992 85.1387C144.907 87.434 142.975 89.2266 140.684 89.138M146.294 100.431C146.19 102.344 144.561 103.813 142.652 103.712C128.652 102.97 111.637 109.805 101.274 120.326C99.9292 121.687 97.7355 121.705 96.3724 120.364C95.7191 119.719 95.3486 118.84 95.3419 117.922C95.3353 117.003 95.6932 116.12 96.3371 115.464C108.175 103.447 126.937 95.9415 143.016 96.7914C144.926 96.8942 146.396 98.5233 146.294 100.431ZM147.3 113.661C147.282 114.024 147.193 114.381 147.037 114.71C146.882 115.039 146.663 115.334 146.393 115.578C146.123 115.823 145.807 116.011 145.465 116.134C145.122 116.256 144.758 116.309 144.394 116.291C132.178 115.675 119.951 120.688 108.05 131.185C107.777 131.426 107.46 131.61 107.116 131.728C106.772 131.846 106.408 131.895 106.045 131.872C105.682 131.85 105.327 131.756 105 131.596C104.674 131.436 104.382 131.213 104.141 130.94C103.9 130.668 103.716 130.35 103.597 130.006C103.479 129.662 103.43 129.298 103.453 128.935C103.475 128.572 103.569 128.217 103.73 127.89C103.89 127.563 104.113 127.271 104.386 127.031C117.408 115.541 130.961 110.064 144.672 110.754C145.035 110.772 145.392 110.862 145.721 111.018C146.049 111.174 146.344 111.393 146.588 111.663C146.832 111.933 147.021 112.248 147.143 112.591C147.265 112.934 147.318 113.297 147.3 113.661ZM98.7602 67.0912C77.1995 78.8208 69.2289 105.809 80.9589 127.37C92.69 148.934 119.678 156.903 141.239 145.173C162.801 133.443 170.772 106.455 159.041 84.8918C147.311 63.3308 120.323 55.3607 98.7602 67.0912Z" fill="#1ED660"/>
</g>
</svg>
